{
	"asset":{
		"generator":"Khronos glTF Blender I/O v4.2.83",
		"version":"2.0"
	},
	"extensionsUsed":[
		"KHR_materials_emissive_strength"
	],
	"scene":0,
	"scenes":[
		{
			"name":"Scene",
			"nodes":[
				0,
				1,
				2,
				3,
				4,
				5,
				6,
				7,
				8,
				9,
				10,
				11,
				12
			]
		}
	],
	"nodes":[
		{
			"mesh":0,
			"name":"zuozhenye",
			"scale":[
				2.2586493492126465,
				2.2586495876312256,
				2.2586495876312256
			]
		},
		{
			"mesh":1,
			"name":"zuonieye",
			"scale":[
				2.2586493492126465,
				2.2586495876312256,
				2.2586495876312256
			]
		},
		{
			"mesh":2,
			"name":"zuoeye",
			"scale":[
				2.2586493492126465,
				2.2586495876312256,
				2.2586495876312256
			]
		},
		{
			"mesh":3,
			"name":"zuodingye",
			"scale":[
				2.2586493492126465,
				2.2586495876312256,
				2.2586495876312256
			]
		},
		{
			"mesh":4,
			"name":"youzhenye",
			"scale":[
				2.2586493492126465,
				2.2586495876312256,
				2.2586495876312256
			]
		},
		{
			"mesh":5,
			"name":"younieye",
			"scale":[
				2.2586493492126465,
				2.2586495876312256,
				2.2586495876312256
			]
		},
		{
			"mesh":6,
			"name":"youeye",
			"scale":[
				2.2586493492126465,
				2.2586495876312256,
				2.2586495876312256
			]
		},
		{
			"mesh":7,
			"name":"youdingye",
			"scale":[
				2.2586493492126465,
				2.2586495876312256,
				2.2586495876312256
			]
		},
		{
			"mesh":8,
			"name":"xingrenhe",
			"scale":[
				0.19164957106113434,
				0.12014054507017136,
				0.12014054507017136
			]
		},
		{
			"mesh":9,
			"name":"xiaonao",
			"scale":[
				2.2586493492126465,
				2.2586495876312256,
				2.2586495876312256
			]
		},
		{
			"mesh":10,
			"name":"naogan",
			"scale":[
				2.2586493492126465,
				2.2586495876312256,
				2.2586495876312256
			],
			"translation":[
				0.3172769546508789,
				1.1745967864990234,
				0.4421406388282776
			]
		},
		{
			"mesh":11,
			"name":"haimati"
		},
		{
			"mesh":12,
			"name":"youeye.010",
			"scale":[
				2.2586493492126465,
				2.2586495876312256,
				2.2586495876312256
			],
			"translation":[
				0.03450894355773926,
				0.08207650482654572,
				0.0715528130531311
			]
		}
	],
	"materials":[
		{
			"alphaMode":"BLEND",
			"doubleSided":true,
			"emissiveFactor":[
				0.05612732842564583,
				0.304987370967865,
				1
			],
			"extensions":{
				"KHR_materials_emissive_strength":{
					"emissiveStrength":20
				}
			},
			"name":"\u53d1\u5149\u6750\u8d28",
			"pbrMetallicRoughness":{
				"baseColorFactor":[
					0,
					0,
					0,
					0.800000011920929
				],
				"metallicFactor":0.5,
				"roughnessFactor":0.5
			}
		},
		{
			"alphaMode":"BLEND",
			"doubleSided":true,
			"emissiveFactor":[
				0.03379061073064804,
				0.013628917746245861,
				1
			],
			"extensions":{
				"KHR_materials_emissive_strength":{
					"emissiveStrength":20
				}
			},
			"name":"\u53d1\u5149\u6750\u8d28.008",
			"pbrMetallicRoughness":{
				"baseColorFactor":[
					0.03379061073064804,
					0.013628917746245861,
					1,
					0.800000011920929
				],
				"metallicFactor":0,
				"roughnessFactor":0.5
			}
		},
		{
			"doubleSided":true,
			"name":"\u53d1\u5149\u6750\u8d28.009",
			"pbrMetallicRoughness":{
				"metallicFactor":0,
				"roughnessFactor":0.5
			}
		}
	],
	"meshes":[
		{
			"name":"Brain_Part_04.017",
			"primitives":[
				{
					"attributes":{
						"POSITION":0,
						"NORMAL":1,
						"TEXCOORD_0":2
					},
					"indices":3,
					"material":0
				}
			]
		},
		{
			"name":"Brain_Part_04.018",
			"primitives":[
				{
					"attributes":{
						"POSITION":4,
						"NORMAL":5,
						"TEXCOORD_0":6
					},
					"indices":7,
					"material":0
				}
			]
		},
		{
			"name":"Brain_Part_04.019",
			"primitives":[
				{
					"attributes":{
						"POSITION":8,
						"NORMAL":9,
						"TEXCOORD_0":10
					},
					"indices":11,
					"material":0
				}
			]
		},
		{
			"name":"Brain_Part_04.020",
			"primitives":[
				{
					"attributes":{
						"POSITION":12,
						"NORMAL":13,
						"TEXCOORD_0":14
					},
					"indices":15,
					"material":0
				}
			]
		},
		{
			"name":"Brain_Part_04.021",
			"primitives":[
				{
					"attributes":{
						"POSITION":16,
						"NORMAL":17,
						"TEXCOORD_0":18
					},
					"indices":19,
					"material":0
				}
			]
		},
		{
			"name":"Brain_Part_04.022",
			"primitives":[
				{
					"attributes":{
						"POSITION":20,
						"NORMAL":21,
						"TEXCOORD_0":22
					},
					"indices":23,
					"material":0
				}
			]
		},
		{
			"name":"Brain_Part_04.023",
			"primitives":[
				{
					"attributes":{
						"POSITION":24,
						"NORMAL":25,
						"TEXCOORD_0":26
					},
					"indices":27,
					"material":1
				}
			]
		},
		{
			"name":"Brain_Part_04.024",
			"primitives":[
				{
					"attributes":{
						"POSITION":28,
						"NORMAL":29,
						"TEXCOORD_0":30
					},
					"indices":31,
					"material":0
				}
			]
		},
		{
			"name":"Cube.003",
			"primitives":[
				{
					"attributes":{
						"POSITION":32,
						"NORMAL":33,
						"TEXCOORD_0":34
					},
					"indices":35,
					"material":0
				}
			]
		},
		{
			"name":"Brain_Part_02.003",
			"primitives":[
				{
					"attributes":{
						"POSITION":36,
						"NORMAL":37
					},
					"indices":38,
					"material":0
				}
			]
		},
		{
			"name":"sdgsd.003",
			"primitives":[
				{
					"attributes":{
						"POSITION":39,
						"NORMAL":40
					},
					"indices":41,
					"material":0
				}
			]
		},
		{
			"name":"B\u00e9zierCurve.002",
			"primitives":[
				{
					"attributes":{
						"POSITION":42,
						"NORMAL":43,
						"TEXCOORD_0":44
					},
					"indices":45,
					"material":0
				}
			]
		},
		{
			"name":"Brain_Part_04.077",
			"primitives":[
				{
					"attributes":{
						"POSITION":46,
						"NORMAL":47,
						"TEXCOORD_0":48
					},
					"indices":49,
					"material":2
				}
			]
		}
	],
	"accessors":[
		{
			"bufferView":0,
			"componentType":5126,
			"count":3525,
			"max":[
				0.13338477909564972,
				0.8616533875465393,
				0.06314541399478912
			],
			"min":[
				-0.3946119546890259,
				0.35007575154304504,
				-0.4754241108894348
			],
			"type":"VEC3"
		},
		{
			"bufferView":1,
			"componentType":5126,
			"count":3525,
			"type":"VEC3"
		},
		{
			"bufferView":2,
			"componentType":5126,
			"count":3525,
			"type":"VEC2"
		},
		{
			"bufferView":3,
			"componentType":5123,
			"count":16266,
			"type":"SCALAR"
		},
		{
			"bufferView":4,
			"componentType":5126,
			"count":2301,
			"max":[
				0.0650545209646225,
				0.6960029602050781,
				0.5598325133323669
			],
			"min":[
				-0.3998289406299591,
				0.3015859127044678,
				-0.0816659927368164
			],
			"type":"VEC3"
		},
		{
			"bufferView":5,
			"componentType":5126,
			"count":2301,
			"type":"VEC3"
		},
		{
			"bufferView":6,
			"componentType":5126,
			"count":2301,
			"type":"VEC2"
		},
		{
			"bufferView":7,
			"componentType":5123,
			"count":12078,
			"type":"SCALAR"
		},
		{
			"bufferView":8,
			"componentType":5126,
			"count":3729,
			"max":[
				0.13343214988708496,
				1.1381125450134277,
				0.8403134346008301
			],
			"min":[
				-0.3580459654331207,
				0.4417981505393982,
				0.13575449585914612
			],
			"type":"VEC3"
		},
		{
			"bufferView":9,
			"componentType":5126,
			"count":3729,
			"type":"VEC3"
		},
		{
			"bufferView":10,
			"componentType":5126,
			"count":3729,
			"type":"VEC2"
		},
		{
			"bufferView":11,
			"componentType":5123,
			"count":20166,
			"type":"SCALAR"
		},
		{
			"bufferView":12,
			"componentType":5126,
			"count":3122,
			"max":[
				0.13437609374523163,
				1.1286988258361816,
				0.23190629482269287
			],
			"min":[
				-0.37614190578460693,
				0.671464741230011,
				-0.3430447578430176
			],
			"type":"VEC3"
		},
		{
			"bufferView":13,
			"componentType":5126,
			"count":3122,
			"type":"VEC3"
		},
		{
			"bufferView":14,
			"componentType":5126,
			"count":3122,
			"type":"VEC2"
		},
		{
			"bufferView":15,
			"componentType":5123,
			"count":13368,
			"type":"SCALAR"
		},
		{
			"bufferView":16,
			"componentType":5126,
			"count":3074,
			"max":[
				0.675555944442749,
				0.8616533875465393,
				0.06314542889595032
			],
			"min":[
				0.14755918085575104,
				0.35007575154304504,
				-0.4754241108894348
			],
			"type":"VEC3"
		},
		{
			"bufferView":17,
			"componentType":5126,
			"count":3074,
			"type":"VEC3"
		},
		{
			"bufferView":18,
			"componentType":5126,
			"count":3074,
			"type":"VEC2"
		},
		{
			"bufferView":19,
			"componentType":5123,
			"count":16266,
			"type":"SCALAR"
		},
		{
			"bufferView":20,
			"componentType":5126,
			"count":2301,
			"max":[
				0.6807729005813599,
				0.6960029602050781,
				0.5598325133323669
			],
			"min":[
				0.21588943898677826,
				0.3015859127044678,
				-0.08166597783565521
			],
			"type":"VEC3"
		},
		{
			"bufferView":21,
			"componentType":5126,
			"count":2301,
			"type":"VEC3"
		},
		{
			"bufferView":22,
			"componentType":5126,
			"count":2301,
			"type":"VEC2"
		},
		{
			"bufferView":23,
			"componentType":5123,
			"count":12078,
			"type":"SCALAR"
		},
		{
			"bufferView":24,
			"componentType":5126,
			"count":3729,
			"max":[
				0.6389899253845215,
				1.1381125450134277,
				0.8403134346008301
			],
			"min":[
				0.1475118100643158,
				0.4417981505393982,
				0.1357545107603073
			],
			"type":"VEC3"
		},
		{
			"bufferView":25,
			"componentType":5126,
			"count":3729,
			"type":"VEC3"
		},
		{
			"bufferView":26,
			"componentType":5126,
			"count":3729,
			"type":"VEC2"
		},
		{
			"bufferView":27,
			"componentType":5123,
			"count":20166,
			"type":"SCALAR"
		},
		{
			"bufferView":28,
			"componentType":5126,
			"count":2605,
			"max":[
				0.6570858955383301,
				1.1286988258361816,
				0.23190630972385406
			],
			"min":[
				0.14656786620616913,
				0.671464741230011,
				-0.3430447578430176
			],
			"type":"VEC3"
		},
		{
			"bufferView":29,
			"componentType":5126,
			"count":2605,
			"type":"VEC3"
		},
		{
			"bufferView":30,
			"componentType":5126,
			"count":2605,
			"type":"VEC2"
		},
		{
			"bufferView":31,
			"componentType":5123,
			"count":13368,
			"type":"SCALAR"
		},
		{
			"bufferView":32,
			"componentType":5126,
			"count":441,
			"max":[
				2.5016345977783203,
				8.819085121154785,
				6.126570701599121
			],
			"min":[
				0.8226221203804016,
				7.140072822570801,
				4.4475603103637695
			],
			"type":"VEC3"
		},
		{
			"bufferView":33,
			"componentType":5126,
			"count":441,
			"type":"VEC3"
		},
		{
			"bufferView":34,
			"componentType":5126,
			"count":441,
			"type":"VEC2"
		},
		{
			"bufferView":35,
			"componentType":5123,
			"count":2304,
			"type":"SCALAR"
		},
		{
			"bufferView":36,
			"componentType":5126,
			"count":2793,
			"max":[
				0.5612367391586304,
				0.5327954292297363,
				0.13650037348270416
			],
			"min":[
				-0.29516884684562683,
				0.1659083217382431,
				-0.31981661915779114
			],
			"type":"VEC3"
		},
		{
			"bufferView":37,
			"componentType":5126,
			"count":2793,
			"type":"VEC3"
		},
		{
			"bufferView":38,
			"componentType":5123,
			"count":16746,
			"type":"SCALAR"
		},
		{
			"bufferView":39,
			"componentType":5126,
			"count":2053,
			"max":[
				0.33459797501564026,
				0.3087949752807617,
				0.3000074028968811
			],
			"min":[
				-0.3345984220504761,
				-0.5012918710708618,
				-0.2527692914009094
			],
			"type":"VEC3"
		},
		{
			"bufferView":40,
			"componentType":5126,
			"count":2053,
			"type":"VEC3"
		},
		{
			"bufferView":41,
			"componentType":5123,
			"count":12324,
			"type":"SCALAR"
		},
		{
			"bufferView":42,
			"componentType":5126,
			"count":1126,
			"max":[
				0.4224003553390503,
				1.9964580535888672,
				1.0931668281555176
			],
			"min":[
				0.16344735026359558,
				1.0606192350387573,
				-0.18243837356567383
			],
			"type":"VEC3"
		},
		{
			"bufferView":43,
			"componentType":5126,
			"count":1126,
			"type":"VEC3"
		},
		{
			"bufferView":44,
			"componentType":5126,
			"count":1126,
			"type":"VEC2"
		},
		{
			"bufferView":45,
			"componentType":5123,
			"count":6324,
			"type":"SCALAR"
		},
		{
			"bufferView":46,
			"componentType":5126,
			"count":1482,
			"max":[
				0.6389899253845215,
				1.1381125450134277,
				0.8403134346008301
			],
			"min":[
				0.16650529205799103,
				0.5214434862136841,
				0.14082510769367218
			],
			"type":"VEC3"
		},
		{
			"bufferView":47,
			"componentType":5126,
			"count":1482,
			"type":"VEC3"
		},
		{
			"bufferView":48,
			"componentType":5126,
			"count":1482,
			"type":"VEC2"
		},
		{
			"bufferView":49,
			"componentType":5123,
			"count":8445,
			"type":"SCALAR"
		}
	],
	"bufferViews":[
		{
			"buffer":0,
			"byteLength":42300,
			"byteOffset":0,
			"target":34962
		},
		{
			"buffer":0,
			"byteLength":42300,
			"byteOffset":42300,
			"target":34962
		},
		{
			"buffer":0,
			"byteLength":28200,
			"byteOffset":84600,
			"target":34962
		},
		{
			"buffer":0,
			"byteLength":32532,
			"byteOffset":112800,
			"target":34963
		},
		{
			"buffer":0,
			"byteLength":27612,
			"byteOffset":145332,
			"target":34962
		},
		{
			"buffer":0,
			"byteLength":27612,
			"byteOffset":172944,
			"target":34962
		},
		{
			"buffer":0,
			"byteLength":18408,
			"byteOffset":200556,
			"target":34962
		},
		{
			"buffer":0,
			"byteLength":24156,
			"byteOffset":218964,
			"target":34963
		},
		{
			"buffer":0,
			"byteLength":44748,
			"byteOffset":243120,
			"target":34962
		},
		{
			"buffer":0,
			"byteLength":44748,
			"byteOffset":287868,
			"target":34962
		},
		{
			"buffer":0,
			"byteLength":29832,
			"byteOffset":332616,
			"target":34962
		},
		{
			"buffer":0,
			"byteLength":40332,
			"byteOffset":362448,
			"target":34963
		},
		{
			"buffer":0,
			"byteLength":37464,
			"byteOffset":402780,
			"target":34962
		},
		{
			"buffer":0,
			"byteLength":37464,
			"byteOffset":440244,
			"target":34962
		},
		{
			"buffer":0,
			"byteLength":24976,
			"byteOffset":477708,
			"target":34962
		},
		{
			"buffer":0,
			"byteLength":26736,
			"byteOffset":502684,
			"target":34963
		},
		{
			"buffer":0,
			"byteLength":36888,
			"byteOffset":529420,
			"target":34962
		},
		{
			"buffer":0,
			"byteLength":36888,
			"byteOffset":566308,
			"target":34962
		},
		{
			"buffer":0,
			"byteLength":24592,
			"byteOffset":603196,
			"target":34962
		},
		{
			"buffer":0,
			"byteLength":32532,
			"byteOffset":627788,
			"target":34963
		},
		{
			"buffer":0,
			"byteLength":27612,
			"byteOffset":660320,
			"target":34962
		},
		{
			"buffer":0,
			"byteLength":27612,
			"byteOffset":687932,
			"target":34962
		},
		{
			"buffer":0,
			"byteLength":18408,
			"byteOffset":715544,
			"target":34962
		},
		{
			"buffer":0,
			"byteLength":24156,
			"byteOffset":733952,
			"target":34963
		},
		{
			"buffer":0,
			"byteLength":44748,
			"byteOffset":758108,
			"target":34962
		},
		{
			"buffer":0,
			"byteLength":44748,
			"byteOffset":802856,
			"target":34962
		},
		{
			"buffer":0,
			"byteLength":29832,
			"byteOffset":847604,
			"target":34962
		},
		{
			"buffer":0,
			"byteLength":40332,
			"byteOffset":877436,
			"target":34963
		},
		{
			"buffer":0,
			"byteLength":31260,
			"byteOffset":917768,
			"target":34962
		},
		{
			"buffer":0,
			"byteLength":31260,
			"byteOffset":949028,
			"target":34962
		},
		{
			"buffer":0,
			"byteLength":20840,
			"byteOffset":980288,
			"target":34962
		},
		{
			"buffer":0,
			"byteLength":26736,
			"byteOffset":1001128,
			"target":34963
		},
		{
			"buffer":0,
			"byteLength":5292,
			"byteOffset":1027864,
			"target":34962
		},
		{
			"buffer":0,
			"byteLength":5292,
			"byteOffset":1033156,
			"target":34962
		},
		{
			"buffer":0,
			"byteLength":3528,
			"byteOffset":1038448,
			"target":34962
		},
		{
			"buffer":0,
			"byteLength":4608,
			"byteOffset":1041976,
			"target":34963
		},
		{
			"buffer":0,
			"byteLength":33516,
			"byteOffset":1046584,
			"target":34962
		},
		{
			"buffer":0,
			"byteLength":33516,
			"byteOffset":1080100,
			"target":34962
		},
		{
			"buffer":0,
			"byteLength":33492,
			"byteOffset":1113616,
			"target":34963
		},
		{
			"buffer":0,
			"byteLength":24636,
			"byteOffset":1147108,
			"target":34962
		},
		{
			"buffer":0,
			"byteLength":24636,
			"byteOffset":1171744,
			"target":34962
		},
		{
			"buffer":0,
			"byteLength":24648,
			"byteOffset":1196380,
			"target":34963
		},
		{
			"buffer":0,
			"byteLength":13512,
			"byteOffset":1221028,
			"target":34962
		},
		{
			"buffer":0,
			"byteLength":13512,
			"byteOffset":1234540,
			"target":34962
		},
		{
			"buffer":0,
			"byteLength":9008,
			"byteOffset":1248052,
			"target":34962
		},
		{
			"buffer":0,
			"byteLength":12648,
			"byteOffset":1257060,
			"target":34963
		},
		{
			"buffer":0,
			"byteLength":17784,
			"byteOffset":1269708,
			"target":34962
		},
		{
			"buffer":0,
			"byteLength":17784,
			"byteOffset":1287492,
			"target":34962
		},
		{
			"buffer":0,
			"byteLength":11856,
			"byteOffset":1305276,
			"target":34962
		},
		{
			"buffer":0,
			"byteLength":16890,
			"byteOffset":1317132,
			"target":34963
		}
	],
	"buffers":[
		{
			"byteLength":1334024,
			"uri":"%E5%8F%91%E5%85%89%E5%A4%A7%E8%84%912%E5%AF%BC%E5%87%BA.bin"
		}
	]
}
